P2
74 74
255
160 36 82 98 62 97 177 117 162 136 117 123 51 225 129 165 123 73 131 147 204 180 102 89 77 119 186 66 85 146 104 77 148 57 200 123 165 116 116 157 109 196 175 94 175 149 108 137 100 92 147 63 191 155 124 141 186 198 128 180 105
86 169 186 233 108 180 215 141 170 191 195 180 196 36 64 157 105 157 207 70 135 120 93 80 209 213 130 172 151 215 139 210 109 68 80 119 172 78 155 177 197 92 93 90 126 59 133 113 74 55 94 154 78 104 119 128 124 197 110 63 145 90 54 87 58 189 98
199 109 148 92 72 166 108 129 192 187 213 165 207 154 74 160 110 174 76 153 32 33 73 204 179 221 93 216 154 116 207 207 175 192 178 85 99 209 74 114 93 178 176 198 113 60 62 148 68 65 174 89 74 92 57 110 80 73 98 161 63 158 158 139 138 147 94 126 127 111 143 155 189 204 124 165 111 170 125 135 109 114 147 129 127 177 175 123 169 89 139 189 216 150 84 113 57 160 109 134 161 166 162 196 167 169 83 136 117 83 201 129 64 104 74 178 150 157 161 57 84 96 160 138 157 74 80 70 146 77 165 63 178 174 182 185 197 102 69 119 198 158 147 167 162 186 129 88 123 109 184 63 149 178
95 181 230 153 166 177 168 128 161 72 114 110 110 108 121 90 174 170 84 109 158 93 144 156 212 82 133 77 158 155 141 123 65 80 166 106 86 41 120 94 143 77 69 145 181 176 170 232 86 120 165 161 123 185 167 140 86 93 68 102 89 62 100 58 137 106 62 74 97 75 94 73 117 133 78 72 63
109 100 185 217 170 168 178 179 130 105 109 68 54 88 168 180 206 166 133 149 123 225 149 66 58
195 167 205 58 79 64
52 99 104 54 77 59 97 51 75 69 66 127 136 126 180 134 60 139 98 76 84 73 83 87 94 97 82 67 121 82 86 57 67 56 57 65 167 118 65 67 128 165 92 185 177 210 135 86 190 169 128 213 76 168 57 165 76 103 115 201 115 157 147 216 96 219 74 175 47 73 53 65 53 45 64 67 64 62 65 68 60 69 66 58 58 123 62 88 85 108 87 117 63 72 53 57 73 52 46 68 58 57 67 44 70 60 45 70 54 60 72 73 60 92 78 123 153 133 170 201 96 179 230 147 171 123 196 74
57 77 149 87 123
211 131 177 65 185 88 170 182 56 51 102 54 70 97 104 131 48 39 69 49 62 41 41 53 49 76 56 48 51 67 83 88 192 92 78 37 85 161
206 41 99 131 129 140 158 155 98 44 133 85 102 62 72 82 77 121 108 178 110 99 213 130 201 195 232 114 118 77 66 174 201 106 148 141 182 210 138 212 171 185 156 57
51 45 199 120 29 69 82 108 23 128 129 141 38 87 114 192 63 113 44 52 52 66 77 78 66 89 65 170 98 92 66 62 162 160 121 32 141 157 211 83 146 165 111 105 114 120 167 134 211 103 179 195 146 210 99 216 225 219 68 55 192
162 162 205 170 49
106 171 194 139 150 232 187 126 136 145 110 110 133 129 117 51 60 167 138 167 64 146 135 180 29 56 104 80 31 56 82 129 65 62 83 68 148 92 45 25 177 156 178 177 148 146 60 181 156 157 96 153 115 192 180 99 146 106 98 119 220 92 161 69
211 144 96 149 201 55 52 165 162 128 109 165 146 170 70 135 172 189 188 177 67 157 115 105 191 80 39 39 114 154 148 151 139 47 18 51 130 96 41 53 63 58 77 93 113 138 104 70 187 62 46
102 149 165 129 59 56 154 188 128 107 153 93 137 118 130 110 198 210 75 198 115 221 167 87 88 176 168 171 160 148 99 115 174 182 129 175 120 180 180 184 145 119 222 60
189 74 128 159 111 57 52 44 48 53 33 41 36 55 76 70 189 63 67 54 83 67 99 92 107 113 106 41 64 55 44 33 23 14 219 138 89 167 127 162 90 108 196 129 70 209 196 126 145 144 205 211 138 236 126 125 89 157 129 53 166 84 94 212 165 201 174 206 177 227 161 160 138 205 85 95 98 160 202 97 51 166 33 37 57 68 174 199 158 209 44 39 93 65 133 94 80 105 66 87 196 64 207 90
161 106 66 89 210 148 185 90 58 124 128 115 177
87 194 229 190 181 210 167 121 181 181 111 189
198 110 82 159 158 162 154 159 145 190 94 233 197 167 207 143 129 189 105 97 111 111 138
120 103 108 198 157 107 145
141 107 184 67 113 80 120 151 60 139 85 140 207 114 69 90 89 216 207 172 126 218 106 207 131 103 118 105 117 134 82 139 137 138 117 175 144 170 232 130 157 243 182 129 98 195 128 139 189 125 119 146 211 213 175 127
202
188 177 177 97 80 60
204 72 97 115 140 64 105 148 178 191 161 159 54 80 86 138 75 158 119 86 178 116 148 119 126 77 78 54 56 150 138 113 69 153 66 117 135 97 135 158 157 117 111 109 209 185 95 194 182 120 198 160 188 205 149 206 210 160 155 68 135 83 215 221 185 154 209 197 209 151 84 169 172 84 197 201 92 77 94 147 77 105 54 37 84 89 130 106 48 43 75 159 159 52 190 137 146 138 164 41 181 184 189 187 196 191 190 178 106 106 82 139 66 128 97 166 66 172 175 143 212 155 213 136 145 158 138 207 94 218 188 115 63 150 118 79 156 219 135 204 192 98 168 209 89 226 119 106 86 60 135 79 59 65 74 93 127 181 184 188 184 176 201 57 111 150 137 43 172 121 144 157 63 64 178 204 225 207 205 139 120 115 76 74 79 58 124 147 126 77 107 117 131 209 161 192 198 115 200 235 144 105 100 200 130 94 59 179 93 191 157 167 134 168 159 130 88 202 83 130 107 188 135
86 143 65 70 72 63 102 82 175 195 195 206 205 210 143 59 177 96 84 208 170 120 130 37 100 202 223 210 176 197 187 185 170 175 118 104 95 87 111 80 104 180 138 85 139 192 225 199 145 102 179 94 115 102 127 138 171 105 98 96 87 58 134 198 199 143 168 87 226 75 150 121 86 158 62
90 160 67 57 144 169 180 146 182 208 205 202 218 79 55 181 87 109 189 149 116 150 160 90 222 204 199 216 197 205 202 166 116 116 127 65 131 155 162 92 98 114 174 197 128 156 187 200 176 207 111 210 228 110 186 77 93 121 98 127 160 154 204 115 96 111 145 140 116 130 192 73 118 93 160 107 76 137 109 182 187 186 186 208 217 215 180 129 90 177 99 110 153 136 131 156 144 105 206 220 220 208 206 199 143 179 188 196 184 129 151 97 60 146 121 155 110 186 207 169 157 170 143 219 141 98 191 124 190 124 82 99 47
76 113 133 103 182 137 191 178 188 66 102 178 62 49 110 137
130 118 181 188 169 189 207 187 167 208 229 195 125 162 147 123 114 151 139 138 137 125 110 208 204 208 219 207 174 186 189 179 185 127 77 107 117 104 102
76 117 130 177 202 124 151 194 215 159 165 121 77 188 84 98 120 143 144 87 135 123 175 82 124 201 148 129 140 148 85 127 196 113 98 41 158 192 196 171 189 192 201 197 215 230 215 119 187 140 126 120 155
137 139 141 136 119 191 220 206 221 182 204 194 196 171 170
158 130 87 143 116 146 181 116 161 119 170 120 176 197 233 172 175 148 106 168 157 60 120 86 108 121 154 96 167 201 143 178 77 90 105 178 149 151 147 174 155 74 103 197 194 181 176 199 201 205 192 228 186 117 174 157 129 138 166 143 138 137 172 116 199 213 219 206 205 205 196 195 153 192 191 157 156 109 120 154 185 98 199 175 153 201 210 197 202 135 172 143 190 160 179 87 133 77 160 144 141 111 149 106 115 87 105 162 213 162 212 119 197 148 143 80 111 154 186 209 188 190 196 205 196 216 207 130 171 160 138 149 154 161 146 137 141 140 206 221 207 194 206 204 208 164 192 201 197 176 153 126 180 147 210 194 191 147 213 201 126 216 134 135 170 121 150 99 195 110 116 153 70 147 95 116 117 90 190 83 139 92 145 133 124 155 75 104 120 135 168 197 190 197 182 187 208 208 208 204 212 127 169 143 131 144 160 135 133 136 160 119 205 231 219 219 207 200 189 189 202 179 184 123 129 109 156 157 206 155 159 179 172 181 160 175 188 187 198 186 175 79 74 125 138 127 60 95 111 159 104 121 83 161 139 139 175 159 155 76 185 67 141 133 181 188 192 196 207 194 208 198 204 198 220 156 155 129 126 153 155
140 135 134 164 117 223 229 206 209 208 213 191 198 202 200 186 181 146 130 175
104 210 172 189 206 160 149 227 155 194 210 185 80 127 144 118 90 114 92 103 89 94 102 162 103 168 164 123 170 174 123 77 123 109 84 64 171 204 154 182 191 208 176 215 201 212 207 220 154 143 121 124 145 172 141 136 133 131 127 215 209 213 198 215 200 205 210 205 209 170 194 164 118 105 195 134 217 169 226 156 155 160 141 151 186
119 197 109 94 89 128 140 89 159 98 48 160 63 209 167 103 168 126 139 80 108 144 105 69 46 179 201 161 190 204 201 198 198 220
206 205 211 164 145 131 130 149 160 147 137 143 137 145 222 197 217 209 208 210 202 199 191 196 174 192 181 130 151 182 137 84 202 188 204 131 216 159 143 156 146 126 195 139 78 99 181 128 108 131 90 108 139 175 75 64 186 177 220 158 165 162 100 58 123 194 189 186 186 197 195 215 201 219 215 212 202 169 137 129 134 146 156 140 137 136 160 156 219 211 205 212 200 187 205 204 187 190 199 189 181 80 100 197 187 153 148 187 161 113 182 206 174 138 223 86 126 92 131 88 99 58 97 136 56 159 93 119 204 111 196 212 189 48 134 135 63 85 136 166 194 192 191 200 202 212 192 226 207 205 199 175 155 130 139 157 156 172 148 144 165 164 195 202 201 216 207 200 221 204 202 174 188 206 179 110 176 108 133 174 182 191 156 143 154 184
104 177 138 210 157 79 160 96 123 131 79 114 150 85 93 54 195 124 139 113 208 140 106 72 97 48 199 146 190 211 126 185 205 215 210 217 216 196 196 144 140 131 133 153 161 155 139 137 144 175 185 199 216 209 187 204 202 205 191 185 204 197 184 123 108 130 180 177 126 205 158 167 174 133 129 184 124 96 110 114 125 109 131 170 170 124 85 84 141 121 86 111 169 105 83 129 78 68 129 75 168 136 185 205 162 199 215 216 207 218 211 196 168 144 138 123 138 177 185 148 139 134 150 166 186 205 221 205 210 202 196 204 161 181 212 184 185 77 131 62 130 161 176 168 199 146 153 130 114 131 105 90 106 133 127 144 157 165 135 120 70 96 32 31 110 68 83 55 160 56 133
140 67 41 166 146 176 197 179 170 212 220 205 202 227 204 191 165 136 131 134 154
194 164 128 130 131 190 200 204 223 195 207 213 199 198 186 201 198 181 111 64 82 207 119 95 190 124 147 141 110 174 158 80 79 116 96 108 118 145 104 185 111 85 99 140 79 94 124 164 107 179 65 70 125 47 97 36 155 190 178 205 204 162 198 219 209 188 228 191 172 136 125 133 143 149 204 162 146 140 137 184 196 207 223 207 217 226 217 166 194 206 191 190 109 58 148 105 128 130 88 179 156 145 147 136 188 123 192 117 80 131 166 102 147 137 135 118 37 156 90 68 77 113 95 62 137 43 82 82 58 37 131 184 94 184 206 185 174 222 205 188 223 194 130 149 127 136 126 186 209 161 133 140 139 196 201 223 208 205 225 222 215 180 209 194 196 179 98 123 76 145 121 136 161 109 174 105 121 102 99 130 105 86 175 137 97 133 119
154 114 150 127 96 92 88 88 110 140 66 147 75 58 58 67 41 117 206 148 170 211 204 189 199 221 206 204 207 151 135 133 128 135 187 200 143 143 137 129 211 201 222 172 205 213 221 160 161 212 197 210 164 103 123 108 140 123 88 104 140 131 196 126 96 109 113 119 85 151 80 84 98 174 123 179 153 125 169 98 74 136 74 52 86 84 68 107 104 47 43 15 190 186 181 192 218 165 201 201 204 204 206 169 124 126 125 120 204 205 177 130 141 139 200 202 220 201 218 201 209 198 200 216 195 188 182 85 72 89 98 130 167 104 93 83 76 92 126 136 118 96 109 103 115 107 102 161 157 178 169 134 155 170 145 107 141 64 69 54 41 121 33 57 45 46 150 213
92 190 211 189 181 206 198 171 216 182 130 137 126 151 153 220 181 135 133 128 204 200 222 207 199 228 172 200 195 206 197 166 172
106 97 143 138 106 140 165 113 85 124 144 87 102 150 105 127 95 68 83 88 164 178 170 146 143 175 134 159 131 129 123 37 36 53 95 69 53 46 25 158 188 169 191 211 199 178 210 202 178 227 196 127 134 127 137 213 201 159 145 125 130 212 211 197 198 212 220 165 204 210 189 199 186 113 99
97 68 161 117 174 123 126 184 143 120 119 115 134 76 115 82 97 106 93 168 149 177 146 186 169 176 153 165 165 56 62 80 56 39 53 74 39 23 79 180 208 184 213 229 180 226 217 197 223 208 140 140 124 134 161 190 135 138 144 137 178 226 175 216 222 184 192 233 199 190 206 171
73 72 155 90 137 92 123 78 87 90 110 99 128 87 102 123 120 105 123 85 65 150 167 176 180 196 158 160 104 57 48 49 97 39 60 60 72 65 53 22 129 151 212 143 194 223 165 210 212 207 194 206 166 126 124 128 133 167 143 129 127 205 205 225 187 229 212 171 210 225 197 204 168 189 44 62 38 110 108 99 93 104 130 94 119 92 135 77 107 107 118 127 63 116 102 158 197 166 169 184 180 181 137 98 105 83 107 46 79 56 45 49 66 21 104 148 197 171 194 225 165 177 213 221
160 221 155 130 121 117 137 162 147 125 124 211 192 209 198 202 226 202 198 200 200 181 205 137 83 62 60 103 89 110 89 161 64 111 146 99 117 109 109 80 113 107 103 96 100 201 187 196 177 166 130 164 161 153 37 95 69 46 46 29 51 44 45 32 67 115 187 207 182 221 187 184 191 179 164 208 197 134 125 137 143 147 128 126 120 199 192 167 207 197 194 164 223 194 204 120 191 95 66 29 90 93 53 141 150 100 70 105 107 128 103 95 120 109 94 88 108 90 97 176 171 176 184 184 178 137 145 86 47 74 74 58 41 47 29 49 97 105 42 135 178 196 154 181 192 168 211 208 195 195 180 130 127 128 175 145 127 127 123 158 225 115 209 220 176 172 219 177 188 200 171 119 80 70 72 100 99 99 118 93 66 106 92 134 93 79 111 121 155 85 107 105 102 162 195 185 175 165 169 171 145 153 106 80 47 56 42 26 41 42 79 127 32 76 82 178 178 187 209 167 202 215 206 185 153 116 124 134 151 169 147 133 153 207 220 191 202 206 119 199 199 189 130 170 88 105 87 104 82 66 79 76 62 202 102 85 103 97 117 120 131 124 97 87 86 107 105 185 184 178 160 172 136 141 145 170 103 53 32 35 201 99 43 49 57 43 59 77 157 139 166 164 143 143 189 199 199 162 146 127 123 135 133 190 135 133 123 206 166 191 207 194 103 202 185 160 201 158 145 116 87 63 77 100 127 83 125 105
195 195 70 107 93 97 104 117 120 89 70 78 102 198 189 191 175 134 169 141 127 168 79 111 60 43 19 38 72 57 74 29 84 52 88 104 198 78 151 128 164 206 188 138 148 130 138 133 127 150 139 129 128 209 148 199 221 113 126 155 185 141 174 107 72 116 109 104 82 94 80 124 103 86 84 79 75 120 100 148 116 100 123 90 119 118 113 187 196 168 170 167 170 160 155 145 66 79 36 59 46 64 117 107 111 39 65 74 137 150 174 165 194 169 104 196 196 159 137 124 130 135 145 149 151 135 137 166 103 213 197 111 187 172 179 199 85 174 86 141 104 128 140 135 133 80 77 80 107 95 109 115 97 97 116 83 121 127 114 103 128 178 194
197 160 185 197 156 180 107 102 32 172 195 151 92 118 159 166 36 45 117 151 172 46 154 131 169 118 204 192 130 134 131 135 155 176 140 136 136 139 135 219 185 191 140 169 171 129 131 138 108 107 124 149 128 82 85 108 111 115 99 88 73 90 107 100 102 105 103 97 102 120 111 109 184 200 200 204 199 198
174 165 93 125 45 47 130 114 167 127 216 59 38 56 121 104 121 137 98 160 192 207 123 146 141 123 134 130 157 159 154 159 151 137 149 148 202 191 146 165 129 191 99 133 147 125 141 87 75 77 67 92 135 131 124 96 96 109 93 97 129 104 94 125 100 109 121 117 192 190 201 199 204 209 196 110 177 131 107 48 100 190 180 196 158 149 178 96 180 136 89 150 127 143 139 140 137 138 131 137 136 139 148 150 143 159 137 134 133 138 139 156 179 153 143 145 145 53 139 195 205 127 73 106 82 55 196 205 208 210 110 100 111 107 94 86 106 82 119 108 108 121 200 204 192 200 210 205 180 176 116 109 52 133 176 199 204 159 221 124 26 89 126 127 129 79 137 168 167 155 155 141 141 137 139 138 162 134 154 153 136 128 144 144 146 157 133 128 150 123 124 158 130 120 149 139 93 124 131 108 115 97 207 176 135 110 73 100 86 108 111 99 118 117 134 131 197 202 204 211 209 199 181 166 139 157 80 179 109 158 188 189 153 137 93 67 58 166 121 121 133 133 119 139 170 192 155 151 140 138 157 139 140 145 131 153 178 191 175 170 169 144 128 105 148 164 108 138 125 148 123 107 79 127 130 159 118 170 74 97 141 94 93 93 79 117 100 147 131 124 181 192 202 206 207 209 185 155 151 102 161 55 172 119 216 164 162 130 186 63 159 129 98 133 129 134 120 70 65 151 166 166 168 143 178 139 174 202 196 170 156 127 134 154 147 166 130 123 138 118 168 155 149 78 149 64 95 126 109 117 141 148 134 105 188 109 104 109 138 119 125 146 129 136 205 198 199 209 197
204 215 143 139 87 185 120 155 179 219 201 191 134 150 119 89 155 95 131 127 155 150 162 150 63 138 148 162 151 168 180 166 167 157
90 65 154 154 133 143 150 139 127 138 95 125 85 79 124 59 218 160 124 108 190 147 110 137 107 124 129 99 129 129 109 131 138 154 137 202 191 207 194 197
208 198 165 166 78 82 207 117 200 215 131 154 215 165 27 44 153 133 124 135 137 155 128 164 149 68 158 136 146 171 177 155
157 90 144 161 158 156 162
135 141 134 123 134 144 70 124 67 77 131 135 106 159 151 164 138 174 137 120 113 94 90 104 117 138 120 136 155 162 198 204 209 199 199 187 190 157 126 135 60 148 136 168 158 216 185 141 223 117 188 33 109 125 144 134 149 150 155 149 155 97 153 156 149 147 162 126 143 157 138 134 139 129 146 133 136 110 97 114 100 92 195 179 85 63 48 171 87 165 162 140 154 184 117 187 129 144 121 139 127 141 160 159 201 200 206 179 181 189 187 190 153 110 129
120 169 192 164 196 215 146 153 213 189 68 166 105 125 138 147 147 139 145 134 135 119 148 154 143 137 147 162 166 138 148 137 138 134 136 124 115 145 114 89 62 109 96 58 133 67 128 189 200 190 174 131 158 155 133 133 95 178 148 155 146 153 155 204 192 198 185 192 176 202 187 178 105 186 135 111 171 180 212 213 211 211
209 82 213 98 109 128 143 143 134 134 128 164 130 170 159 156 164 138 154 160 147 160 151 134 141 130 129 118 123 106 96 55 181 44 207 84 192 169 85 168 146 178 172 169 182
147 130 113 108 124 136 196 158 160 155 184 196 190 199 206 174 178 170 149 146 128 160 128 172 155 208
171 205 178 220 156 191 78 90 139 133 124 129 125 126 130 127 127 138 149 126 139 155 140 133 135 130 131 129 126 129 121 72 94 127 126 162 118 84 145 127 118 194 136 209 167 213 171 171 131 123 127 116 119 137 158 162 171 159 187 199 195
202 194 194 157 170 155 165 172 117 219 149 160 127 121 185 172 29 231 217 108 124 133 106 134 129 125 136 127 136 127 143 164 137 129 136 128 135 138 138 135 126 131 188 93 147 78 60 150 141 179 128 161 170 85 137 139 218 218 175 143 189 157 126 127 121 159 139 153 150 162 172 204 200 204 202 182 188 180 156 164 182 149 136 198 107 157 139 135
222 105 125 196 217 199 151 117 119 118 166 126 123 135 127 129 148 131 128 128 131 128 129 140 139 151 130 119 123 192 84 191 79 176 184 176 174 167 194 166 188 196 195 210 186 177 160 131 119 136 115 134 146 155 155 150 160 182 195 205 179 198 188 168 176 184 139 174 156 141 107 116 210 182 208 147 219 85 197 225 209 215 184 127 138 123 131 141 123 159 159 148 187 135 126 121 136 134 137 136 133 123 141 87 208 184 116 207 162 119 206 98 147 191 201 184 194 176 185 175 170 195 160 135 130 129 140 143 161 161 146 200 200 200 196
176 181 176 182 187 157 185 129 124 140 196 121 220 171 213 189 175 194 221 220 233 182 215 191 170 117 125 114 139 166 128 116 120 147 123 128 135 143 176 159 167 194 218 225 154 217 158 194 75 57 201 148 114 182 164 181 123 159 135 130 134 133 130 128 139 139 158 143 151 153 166 188 200 190 195 175 175 182 178 128
180 130
147 165 121 113 171 148 189 197 204 116 212 223 226 211 175 219 141 213 176 199 139 208 207 138 176 215 114 148 158 190 119 202 147 209 156 202 212 176 207 207 138 90 180 175 147 223 189 159 192 176 164 212 144 141 140 123 151 149 148 137 154 157 171 186 177 171 158 171 187 175 181 172 140 124 148 144 192 147 134 139 206 204 200 178 225 187 103 223 198 168 177 201 207 177 192 117 199 210 178 202 184 155 190 178 202 212 179 146 192 134 199 202 68 146 143 144 115 199 141 151 169 170 160 118 143 104 119 127 121 120 140 133 139 151 130 150 186 149 187 192 168 188 166 200
150 188 182 182 133 145 135 99 210 105 165 198 216 217 229 207 194 164 94 217 206 208 166 127 198 167 136 216 189 215 180 205 170 194 206 174 157 215 185 160 83 110 69 219 164 120 195 210 171 184 207 174 177 207 136 128 131 124 126 121 155 129 135 155 123 137 169 179 157 166 175 181 170 188 156 154 170 145 136 160 120 218 96 206 99 198 196 219 219 176 192 215 207 166 226 165 137 133 151
148 160 149 196 182 169 172 135 205 192 115 158 133 208 141 74 217 176 125 108 195 133 176 174 165 162 162 147 129 158 169 108 121 131 126 135 140 131 145 127 136 194 169 188 181 171 171 174 166 180 169 166 134 157 125 117 124 147 95 120 221 164 184 220 212 215 207 201 148 178 194 207 121 136 119 156 149 204 133 131 129 133 144 117 103 128 121 131 89 99 92 225 89 199 145 144 194 166 159 190 125 129 123 145 124 117 109 157 116 125 148 144 123 140 120 149 157 158 177 144 174 159 186 180 167 156 150 164 105 146 109 111 111 102 159 134 200 178 189 209 212 216 200 190 175 100 99 128 136 130 133 150 119 155 114 201 146 118 108 114 180 170 88 189 190 178 175 199 179 145 138 143 119 156 126 113 104 135 137 125 123 147 137 127 135 139 109 137 126 169 164 138 171 165 185 171 172 164 172 168 153 153 156 158 88 130 105 87 191 141 189 186 177 185 216 184 208 205 204 178 172 159 111 194 120 175 188 161 164 209 120 202 208 136 151 207 114 161 171 199 189 165 161 197 138 141 146 175 139 128 113 99 118 96 88 126 127 118 106 108 125 87 104 157 156 150 158 158 167 175 169 167 161 127 138 151 140 125 146 175 123 106 111 157 86 207 209 197 175 205 202 209 189 202 188 178 204 202 191 194 198 172 189 176 182 205 196 208 184 200 195 198 202 185 218 159 170 154 160 161 69 107 109 128 115 102 117 106 90 114 156 110 106 138 103 102 99 137 167 146 149 160 162 167 166 184 159 136 165 148 157 116 102 127 103 119 190 87 211 194 198 210 212 206 202 202 197 219 180 202 205 202 170 197 198 189 191 191 209 191 206 207 202 197 208 198 210 192 177 169 138 126 120 133 110 95 94 87 104 114 104 95 99 109 140 88 102 79 103 110 68 11 22 19 21 23 23 17 11 14 1 5 4 6 18 18 21 21 16 15 18 22 18 17 10 5 3 0 0 17 1 7 3 4 3 4 4 3 16 19 21 19 22 22 16 10 3 12 2 4 17 19 16 21 21 18 16 21 22 19 16 8 2 0 0 0 3 1 5 2 3 2 2 4 4 