P2
103 103
255
160 99 100 161 80 134 191 97 38 120 84 201 95 147 117 128 216 42 205 57 96 165 166 177 125 191 147 187 204 119 72 60 114 80 88 119 199 105 73 72 210 176 104 99 179 156 65 168 89 123 171 124 96 85 79 165 109 211 166 131 49 80 107 149 184 211 139 107 95 205 147 120 171 138 128 120 129 141 171 185 207 104 148 117 105 119 77 207 111 149 174 108 202 131 206 206 215 172 191 83 106 137 169
74 102 47 131 72 57 107 120 168 148 154 150 158 194 68 92 125 128 41 123 85 153 189 182 162 199 75 86 194 168 111 100 119 102 148 125 159 207 189 198 79 126 174 133 200 58 130 171 114 176 83 51 135 206 133 96 140 200 177 120 148 197 128 158 189 95 118 89 90 131 100 127 149 118 174 145 62 158 134 170 143 196 179 147 145 117 186 159 146 207 88 231 141 150 164 128 159 204 207 60 160 134 125
65 64 129 57 220 180 120 141 149 70 93 160 67 131 184 135 134 216 93 74 49 153 185 126 118 165 97 145 148 176 72 57 84 58 94 154 151 167 126 133 88 105 92 110 189 36 169 144 70 204 116 80 76 77 206 197 124 86 153 119 106 114 141 181 180 78 194 170 106 82 84 72 149 185 171 51 207 200 160 167 128 86 180 178 131 218 143 164 219 205 210 151 154 207 89 213 69 204 49 141 149 89 90
98 36 36 63 53 150 119 190 63 56 197 116 150 97 162 96 139 105 200 92 189 195 189 144 204 109 167 145 85 137 157 94 160 148 44 205 162 189 187 120 138 154 109 83 192 176 95 167 197 164 86 123 138 171 108 146 128 148 94 126 74 126 103 113 83 174 198 87 65 67 144 125 167 148 144 129 147 187 154 169 108 194 94 128 206 168 136 158 227 124 171 135 233 174 175 195 228 72 133 76 79 145 55
95 109 38 211 179 219 165 210 73 98 135 135 181 125 102 46 156 135 137 144 192 197 168 198 114 148 72 84 201 86 156 74 88 94 178 143 56 83 165 110 179 78 79 41 64 68 148 138 150 134 111 176 171 177 141 181 89 202 108 76 74 134 130 70 121 148 104 119 72 210 144 111 208 166 92 192 66 202 136 156 199 200 178 128 110 129 90 231 202 172 111 207 162 171 116 194 147 178 102 103 89 105 104
47 51 66 62 125 68 238 131 66 205 92 75 129 129 157 189 90 202 212 198 202 223 138 169 102 135 170 51 180 114 114 186 179 123 128 190 145 149 89 103 47 154 76 129 154 168 72 76 190 52 167 161 162 177 184 66 92 175 106 154 68 129 59 69 141 97 133 149 117 64 178 192 195 199 218 119 116 59 155 104 174 226 185 176 170 146 230 206 100 98 128 107 211 194 121 134 205 92 156 167 143 70 130
83 49 202 105 199 105 150 162 166 143 99 129 76 176 62 227 105 139 144 109 110 126 179 113 84 121 106 148 100 186 94 86 115 184 171 84 90 78 102 62 94 74 76 134 86 110 60 182 111 80 196 90 85 164 176 139 73 140 169 129 113 46 187 98 59 80 108 86 99 169 118 191 221 210 97 66 156 194 53 150 238 171 196 162 130 89 119 70 148 180 83 90 100 128 129 223 90 160 99 56 53 75 65
105 139 100 121 139 146 202 120 208 159 79 200 78 161 130 144 133 215 215 178 205 210 196 113 98 146 46 171 172 69 228 168 209 136 185 92 57 57 93 79 69 124 133 95 90 85 114 86 106 154 125 73 93 189 113 159 124 129 159 65 83 102 106 90 80 104 74 125 131 109 98 147 86 75 89 186 213 72 225 167 102 205 86 222 187 119 125 165 200 123 181 74 211 100 143 165 161 67 153 161 145 178 95
146 137 89 165 191 129 166 66 155 114 121 188 208 76 222 69 143 119 176 179 83 149 120 160 146 76 138 140 195 70 92 185 90 140 157 60 92 111 46 156 77 107 97 83 48 79 150 89 66 68 113 154 102 78 181 86 99 143 57 59 148 97 88 121 85 72 129 108 155 184 202 161 143 168 174 165 150 110 171 100 179 56 204 212 151 195 135 92 88 143 148 161 87 160 170 79 106 148 53 65 144 108 75
194 102 99 177 76 201 190 108 87 160 147 89 80 102 136 205 114 185 167 174 199 208 109 89 154 130 155 145 138 90 167 102 109 197 103 144 53 98 57 113 154 194 139 86 100 94 141 63 68 88 137 125 137 93 79 68 119 87 74 67 63 73 79 123 128 103 180 128 134 146 165 226 180 154 67 164 194 215 120 180 119 202 192 136 231 196 169 143 181 190 162 106 197 213 87 160 120 36 69 209 136 100 178
199 115 146 198 157 204 174 145 196 98 205 157 139 134 46 145 137 170 121 199 153 133 130 125 128 96 117 165 46 92 177 103 82 120 127 78 89 146 99 67 100 118 78 117 72 98 76 107 84 68 119 88 76 114 67 83 164 109 197 96 94 102 162 158 147 186 162 150 167 187 178 79 192 55 116 228 146 96 198 182 111 113 84 209 186 156 106 219 140 184 135 196 215 110 179 109 80 39 117 141 111 125 140
144 104 116 145 153 200 170 95 195 157 68 89 97 56 202 104 204 196 143 137 151 209 80 103 64 166 82 70 70 70 128 117 104 129 138 64 118 111 109 68 57 118 128 85 89 82 103 85 139 75 84 77 82 79 167 63 117 143 76 109 76 144 144 85 149 190 143 153 215 102 143 157 88 187 169 141 75 138 158 192 100 170 154 140 121 206 185 147 187 174 178 169 72 195 79 82 74 68 143 127 136 206 118
158 127 125 195 169 127 95 177 178 161 130 210 106 154 42 58 169 103 123 165 72 130 151 169 145 131 141 79 117 130 168 69 76 52 117 125 146 113 66 55 56 87 104 84 80 93 88 169 59 82 99 166 86 171 134 100 70 73 93 125 141 139 154 166 135 191 130 103 88 182 172 109 85 109 104 85 123 190 151 110 117 186 77 85 211 199 114 179 116 164 80 106 102 154 93 113 41 188 75 167 147 104 217
164 87 212 167 134 98 196 195 216 102 92 167 88 157 143 190 155 144 160 110 49 192 126 172 159 57 116 109 204 154 165 73 58 73 143 88 79 60 57 68 59 65 83 52 96 80 121 136 83 92 166 157 131 115 73 96 89 148 120 125 84 84 97 70 125 202 204 179 182 128 88 194 95 76 199 192 178 208 95 116 198 75 103 153 223 213 82 210 75 69 95 167 138 194 148 92 33 110 85 97 118 52 210
93 124 136 197 87 201 167 207 159 88 198 98 145 72 99 80 184 116 205 140 118 178 96 82 151 90 57 144 62 67 70 74 65 170 69 89 46 78 135 38 70 82 80 72 89 166 172 119 75 158 151 67 182 170 100 74 94 116 148 149 70 164 103 155 191 160 199 139 181 141 111 208 174 196 120 194 222 114 102 194 179 120 119 151 175 198 196 111 157 85 157 189 182 184 77 62 127 90 186 194 66 167 93
200 143 175 180 63 174 113 165 137 186 184 187 146 57 182 170 162 126 97 100 196 137 83 75 86 47 59 151 99 118 47 60 65 161 62 95 89 88 51 129 161 85 49 92 70 96 70 109 164 202 94 176 190 82 165 135 207 181 69 157 200 155 90 179 180 166 206 188 179 141 136 113 120 72 156 177 185 86 200 226 139 155 161 164 223 204 202 191 144 198 208 156 120 150 128 22 53 96 52 192 171 141 70
176 153 157 161 126 186 151 164 168 166 129 159 174 164 115 191 166 117 185 156 76 57 84 85 145 44 58 139 52 75 76 64 128 76 99 67 56 79 73 70 62 56 76 73 140 89 78 119 185 170 90 160 83 114 90 146 107 146 157 162 120 168 109 189 150 190 191 182 166 123 92 98 198 64 140 141 114 215 168 131 168 202 121 153 208 221 218 158 188 201 68 143 141 92 51 77 94 117 165 151 168 171 143
205 134 194 68 178 68 93 106 195 108 181 191 99 156 126 201 131 171 105 88 121 131 59 119 44 82 80 53 88 70 146 136 128 95 125 74 123 94 62 54 65 67 79 72 70 160 134 128 204 157 178 125 120 123 135 59 131 126 167 146 138 143 194 200 187 151 190 160 184 82 139 74 55 175 109 108 217 140 187 196 188 184 123 197 212 232 198 119 143 83 176 102 192 100 104 51 66 64 194 161 168 102 106
201 180 110 162 221 151 184 181 192 170 90 138 136 102 125 166 168 164 58 121 88 181 44 87 133 120 67 113 77 154 181 82 58 82 48 69 102 67 56 88 74 92 67 124 153 170 188 200 98 178 136 151 76 176 86 103 226 154 188 197 146 178 157 69 169 109 155 176 117 68 59 96 205 143 194 208 153 150 184 182 211 97 123 145 160 162 151 72 52 210 164 221 39 54 55 185 137 189 83 138 191 196 126
157 151 192 225 174 105 206 186 117 77 106 215 185 90 206 184 83 103 105 98 157 88 167 164 160 148 107 111 144 119 117 79 74 128 74 110 65 82 79 82 86 90 145 176 110 177 188 166 201 174 177 113 93 93 172 168 228 150 201 189 179 186 116 178 144 168 126 96 117 107 161 159 188 104 184 93 158 175 185 207 111 180 118 195 184 164 148 53 160 118 131 159 75 181 58 65 105 206 120 217 107 165 170
116 141 93 192 118 103 176 84 147 83 79 154 67 144 93 110 131 59 127 89 157 85 147 73 58 111 82 138 84 148 97 68 129 72 56 153 161 84 138 64 94 103 155 137 195 186 178 198 126 94 113 83 197 149 180 170 180 118 158 165 124 149 85 95 176 145 120 127 84 150 95 123 104 115 113 201 139 166 164 153 72 94 124 189 111 120 66 137 113 108 144 47 46 92 108 181 109 150 197 100 146 87 125
196 165 99 155 162 80 106 117 89 133 192 88 198 140 104 147 136 148 170 85 96 161 62 97 74 159 114 113 138 181 78 97 145 83 113 146 89 119 138 88 74 169 174 185 192 205 220 166 153 69 52 179 137 185 192 174 167 198 169 124 85 172 144 123 128 120 113 149 117 168 178 108 130 179 221 189 100 166 186 123 164 89 227 140 72 120 169 124 72 90 42 94 82 85 72 198 204 95 187 58 222 168 140
83 106 188 153 189 155 137 119 60 72 174 197 73 103 113 188 192 205 100 113 144 69 74 63 46 121 129 137 68 104 77 109 83 103 126 164 123 187 150 167 162 205 170 166 184 151 199 166 154 58 134 180 178 98 154 96 184 159 158 139 96 82 216 107 68 175 185 100 184 96 74 92 190 197 129 105 184 95 135 221 70 216 136 158 187 174 138 167 128 141 35 70 58 182 223 186 196 210 127 148 186 166 209
191 130 178 186 187 92 154 47 139 67 123 83 113 92 106 117 146 165 154 148 184 82 58 82 97 168 178 188 135 178 119 114 80 106 213 80 130 169 138 143 137 139 181 225 134 202 144 208 66 207 117 121 205 177 212 125 136 222 182 151 118 102 151 96 86 158 79 164 84 119 70 104 148 79 84 176 168 194 217 109 171 138 159 180 161 229 103 85 102 146 127 63 67 174 184 143 154 195 178 192 200 124 221
159 189 210 114 139 141 84 97 85 82 198 138 118 185 108 159 151 197 182 47 140 180 139 79 162 123 95 114 162 92 131 93 139 95 171 187 110 154 194 182 210 215 227 179 174 95 133 149 90 155 72 187 138 158 143 83 77 124 191 156 114 118 141 95 80 58 70 64 145 83 147 128 217 136 162 168 222 187 201 200 148 204 174 189 209 80 217 79 128 48 72 55 165 99 120 180 190 221 102 188 68 119 166
177 209 77 162 96 218 94 63 43 133 130 161 129 151 150 147 144 106 89 57 108 90 113 63 118 106 131 137 94 147 185 168 114 150 74 170 192 180 167 188 161 208 145 118 83 87 78 49 168 162 146 199 158 140 67 70 64 189 96 87 79 79 89 182 138 75 147 89 141 191 72 199 51 115 195 195 218 204 150 127 176 212 197 223 113 114 107 100 74 79 123 52 141 94 126 202 187 192 150 119 135 227 206
92 196 204 59 164 96 86 97 75 80 84 114 197 143 96 66 166 92 220 128 138 96 56 65 133 78 190 189 79 115 162 146 164 75 80 206 139 205 200 139 179 158 187 84 118 119 46 164 165 90 89 125 65 83 117 64 129 79 107 70 80 113 161 84 161 159 68 147 119 75 196 51 99 201 87 226 176 127 136 153 228 153 211 159 116 66 125 86 68 176 135 128 143 167 114 121 76 141 126 126 86 125 98
123 189 69 147 168 124 59 76 148 86 128 94 202 189 150 113 80 103 133 149 159 87 82 75 107 151 117 168 195 194 229 189 90 82 73 191 89 177 230 217 162 153 145 85 73 47 87 162 93 89 67 87 104 126 77 83 75 76 80 89 72 74 88 192 65 69 73 85 145 137 90 70 89 77 176 201 128 210 167 226 161 215 201 104 135 116 121 56 151 174 68 131 130 126 217 182 93 207 164 162 156 197 139
133 93 89 73 159 100 105 123 74 67 75 113 111 76 86 72 58 104 113 149 53 77 98 111 136 209 141 113 170 191 120 156 69 144 160 161 164 188 107 170 206 109 86 136 67 70 93 85 92 62 88 103 80 149 85 139 62 93 76 100 69 80 128 73 77 88 113 98 210 98 63 218 47 85 191 185 201 170 135 94 195 175 111 83 105 93 64 118 74 186 184 141 149 73 205 99 80 98 147 95 166 60 74
70 128 104 89 83 111 124 104 82 109 88 98 89 146 137 100 111 162 74 92 55 65 58 107 82 92 160 209 154 208 134 59 100 159 166 161 161 130 156 114 147 85 146 83 87 135 89 67 64 83 75 60 83 68 73 90 84 82 80 131 65 83 99 64 72 73 195 151 73 84 141 125 95 160 213 135 216 201 194 212 161 129 141 113 47 87 62 74 67 69 118 192 113 221 181 189 70 138 202 98 147 218 182
136 102 83 78 129 141 70 104 92 100 89 135 140 77 123 57 124 74 75 65 133 82 73 118 125 74 171 109 182 209 123 85 157 160 144 114 197 178 133 119 77 79 133 76 78 88 109 140 68 88 64 64 67 48 68 106 84 75 65 59 66 206 76 54 82 212 64 68 182 88 92 118 134 135 201 215 159 175 144 166 167 213 114 62 118 114 169 115 70 138 99 148 174 215 166 169 130 143 217 138 114 221 73
104 107 60 164 84 146 73 116 115 74 178 95 121 76 125 57 78 85 54 51 58 77 67 106 149 109 157 188 169 191 182 100 188 156 141 162 75 143 73 85 69 73 59 94 96 105 94 120 100 80 49 65 83 64 72 175 82 79 64 59 59 74 47 70 51 57 104 80 107 154 128 106 124 212 222 198 201 63 222 210 217 97 102 83 74 109 123 153 55 168 159 147 176 150 108 178 213 197 184 64 103 104 83
111 46 78 131 141 147 140 78 63 106 76 130 53 120 73 123 69 76 68 70 58 76 39 107 185 88 201 151 121 162 110 80 104 161 160 128 170 116 84 77 78 68 66 128 115 68 59 77 86 63 85 88 93 53 76 114 96 88 51 65 57 197 156 70 77 52 127 165 130 102 87 198 206 190 200 149 154 205 139 116 181 167 85 171 138 104 103 96 149 114 187 207 184 225 210 117 212 146 78 167 85 42 62
127 60 67 54 66 68 78 147 108 63 69 65 64 72 139 103 104 70 96 72 63 94 57 109 120 143 60 134 209 169 119 86 69 95 170 184 159 115 92 90 62 85 103 106 93 72 94 98 105 86 72 102 89 68 72 63 63 60 57 63 179 154 69 93 92 65 105 118 189 172 199 218 169 120 172 146 160 184 60 182 113 86 206 160 95 167 170 128 196 134 77 221 144 197 196 95 199 186 158 78 82 63 186
150 137 70 82 119 87 60 83 83 70 102 34 83 72 64 58 120 42 45 87 56 77 83 89 82 190 114 128 213 92 85 130 78 80 121 93 180 80 86 79 67 93 64 89 82 59 59 125 93 96 90 75 123 67 55 78 68 70 66 48 125 160 155 136 168 77 80 223 169 118 130 154 182 189 204 182 117 76 216 145 114 82 68 86 64 147 170 205 99 206 177 205 168 137 102 179 225 182 164 95 35 72 177
167 87 54 60 67 79 96 52 97 98 63 36 79 47 59 96 99 57 92 58 74 66 116 157 102 131 66 190 134 62 48 160 96 141 96 84 87 84 90 72 94 107 97 79 69 58 82 76 86 86 76 72 67 65 94 62 65 66 179 121 54 72 60 128 94 68 104 212 164 166 210 133 186 108 182 207 80 128 125 68 123 196 98 39 172 175 89 226 76 121 139 236 138 181 87 217 166 82 44 53 176 64 188
76 133 58 73 115 74 74 76 76 68 75 67 57 51 69 87 43 57 79 57 85 109 164 95 149 109 97 104 128 53 127 85 126 105 82 84 83 66 72 84 82 88 104 78 53 70 84 73 69 80 49 67 103 68 89 87 63 48 76 83 99 120 47 172 95 148 211 135 190 177 126 100 127 129 201 86 87 194 75 204 181 59 129 83 141 200 169 185 64 115 188 162 185 135 168 120 146 178 155 52 73 90 76
62 52 67 70 60 58 73 89 51 69 48 60 67 56 73 83 54 76 36 83 99 118 166 184 60 76 94 121 113 46 114 156 87 110 82 68 73 84 92 79 119 80 68 65 57 70 67 79 84 68 85 110 56 66 119 87 84 76 78 53 89 75 63 95 128 67 85 141 150 121 102 204 177 155 86 180 167 111 182 133 134 93 135 92 161 58 138 191 104 204 75 155 169 189 139 68 135 194 196 55 47 70 140
65 60 59 96 66 74 84 72 74 70 67 64 57 66 69 62 70 68 60 83 95 85 151 44 93 82 74 78 54 93 130 121 84 69 73 78 63 63 82 77 78 74 68 66 76 68 80 72 77 87 57 66 52 92 60 66 69 65 73 68 75 57 120 85 65 180 223 169 170 89 186 179 216 106 198 120 194 69 63 166 80 63 66 64 199 134 115 146 195 138 128 160 139 96 75 93 115 83 83 65 165 76 64
88 78 130 56 102 69 80 62 55 68 88 53 58 85 84 74 59 52 63 63 79 87 77 144 60 109 92 49 155 157 123 74 68 86 77 59 87 79 66 84 66 70 68 84 70 60 84 72 67 76 77 54 51 60 54 96 56 55 79 57 57 74 80 127 197 155 87 151 110 153 115 201 147 188 82 165 113 102 157 69 161 52 110 168 125 226 187 74 197 182 94 213 197 66 109 222 103 55 100 198 60 89 154
82 56 62 69 57 58 72 60 69 67 60 62 67 92 72 58 69 62 64 66 73 88 147 82 114 146 54 72 159 78 69 64 58 76 72 89 105 74 92 84 77 64 55 60 43 54 114 63 85 99 82 70 64 70 56 64 76 88 67 68 199 138 194 237 108 175 184 143 218 93 198 228 215 63 196 115 161 177 126 213 174 108 186 108 83 182 194 162 130 210 96 221 126 143 167 107 88 158 69 125 55 66 82
60 98 68 63 54 62 76 65 65 60 82 65 69 69 75 57 73 63 56 78 57 113 124 65 85 69 70 103 92 65 62 76 56 54 63 76 63 49 94 67 52 45 67 58 34 29 57 64 60 79 78 83 70 62 170 70 89 51 65 182 151 199 206 179 144 204 180 172 135 137 171 233 84 176 144 118 129 187 93 199 60 69 103 151 92 182 154 119 175 147 168 157 86 194 171 80 175 92 53 62 46 80 62
53 77 59 63 60 106 54 62 63 48 54 70 67 62 66 70 64 70 88 82 69 88 100 88 58 94 94 82 63 76 83 58 64 64 65 52 60 36 62 64 53 46 67 45 39 66 47 53 54 70 82 106 51 99 77 69 60 106 84 88 113 194 197 133 131 162 164 131 184 149 230 95 189 172 121 155 210 74 166 185 66 150 78 157 176 127 182 126 188 144 133 92 162 115 117 118 86 51 90 69 56 59 62
69 59 60 72 63 52 55 76 70 63 60 67 84 80 64 69 84 64 100 78 75 139 59 74 86 67 97 75 68 82 83 66 62 51 58 55 62 70 86 55 83 120 115 79 56 52 48 52 70 135 53 76 54 75 80 87 69 93 95 59 118 199 93 127 151 223 207 199 176 217 126 201 158 157 162 174 66 104 198 106 69 111 64 105 210 191 225 102 191 176 120 135 77 126 51 67 56 57 106 57 64 69 65
74 74 63 69 49 60 65 69 68 83 75 54 64 59 58 84 60 78 89 69 83 63 66 76 63 66 54 67 79 84 58 73 60 63 66 125 55 60 98 120 171 158 135 135 57 65 43 57 52 70 63 74 53 77 57 75 76 90 85 129 98 119 180 46 84 166 180 176 207 208 215 117 184 119 181 99 93 85 158 68 189 64 66 140 209 145 179 192 208 103 174 158 140 166 54 98 88 56 66 124 82 76 74
73 55 70 99 59 57 63 42 57 54 72 62 52 64 68 62 52 69 78 72 75 72 75 67 84 59 56 53 73 58 49 49 76 97 90 64 120 129 119 155 187 166 153 82 55 65 49 133 72 67 57 64 123 83 87 147 94 108 109 119 133 128 166 143 195 216 138 215 166 137 119 149 202 170 68 64 110 102 120 136 197 190 60 100 216 171 110 181 154 139 166 76 90 49 105 147 197 49 120 65 44 100 58
73 48 69 57 56 62 64 55 56 53 65 64 48 60 103 68 69 54 68 52 84 136 83 64 64 65 46 93 82 42 39 67 111 93 53 65 116 131 143 180 181 145 151 146 52 64 89 75 100 75 99 70 74 100 73 93 127 148 109 140 97 157 170 170 229 104 174 145 206 155 90 151 135 95 130 67 92 59 56 208 191 202 116 90 215 138 131 196 196 162 94 67 121 114 59 70 157 63 69 47 58 72 65
65 62 70 75 44 43 45 47 49 41 38 74 58 64 64 64 65 67 58 56 64 90 89 52 56 82 74 72 51 46 123 169 192 85 63 98 154 134 166 166 161 139 129 133 51 66 65 86 62 63 75 75 66 73 78 174 194 162 179 167 55 134 197 202 135 121 177 180 205 149 113 175 177 201 114 57 89 150 86 125 168 222 220 177 129 82 186 198 179 154 221 129 55 172 56 59 133 62 56 48 74 138 68
64 66 37 69 46 56 45 33 32 43 52 34 52 77 53 64 72 67 58 86 141 147 96 99 84 82 72 78 46 119 159 69 90 54 178 143 159 167 127 162 150 154 148 39 37 68 64 78 86 103 85 68 85 72 92 185 200 227 232 113 117 168 217 84 115 140 178 209 207 110 78 181 187 99 85 77 98 86 117 158 207 211 131 176 171 87 191 114 144 170 171 84 134 62 47 175 54 77 120 75 58 116 59
48 51 46 42 36 28 52 41 33 42 47 46 37 57 56 74 62 49 67 73 73 88 105 110 96 85 55 48 85 108 157 143 66 55 116 131 158 143 120 158 136 135 98 42 68 160 60 69 110 62 88 115 70 79 121 108 108 94 88 169 90 139 198 130 191 218 215 238 192 94 118 185 82 65 109 110 158 77 178 99 88 190 102 182 157 155 146 100 82 117 45 62 161 48 55 145 73 62 72 62 73 69 29
51 84 79 53 72 104 56 47 25 59 55 48 73 37 62 62 43 54 67 88 161 103 100 113 100 65 56 89 156 157 161 54 44 115 165 167 92 83 160 160 162 179 58 43 160 92 68 79 62 68 110 93 60 99 103 74 167 177 138 128 165 178 190 212 196 211 153 180 177 64 194 92 83 114 147 127 109 191 164 188 128 133 124 184 182 147 186 179 164 111 114 165 121 51 68 73 51 53 58 49 43 68 31
36 63 129 145 159 157 125 131 79 56 114 41 42 57 57 48 52 106 66 62 111 139 95 93 66 59 54 140 124 110 75 48 185 151 161 118 45 103 162 141 150 89 49 187 118 119 86 65 54 95 126 148 99 134 77 186 184 150 104 177 104 90 113 217 199 154 175 182 86 209 88 93 73 76 95 97 160 205 69 172 128 108 117 164 127 199 181 93 54 128 137 118 46 115 59 46 68 76 59 49 52 37 44
72 137 146 148 110 130 107 130 42 103 84 44 38 57 73 41 59 108 133 139 97 68 83 76 62 85 145 69 157 88 39 39 148 159 153 44 46 133 162 139 200 26 72 148 165 94 75 110 88 105 93 176 77 85 124 200 150 151 200 144 100 181 181 116 174 180 190 59 174 137 113 120 184 153 113 138 128 168 171 131 137 130 100 236 168 162 92 66 75 140 68 109 59 47 114 79 70 111 68 37 48 46 190
145 140 150 111 83 120 107 93 27 185 149 51 44 56 58 62 98 86 103 77 105 84 74 47 75 139 169 138 92 66 66 119 156 160 115 243 65 176 149 125 55 73 108 140 124 79 117 78 117 199 118 154 108 166 138 134 154 202 155 134 220 223 190 127 149 129 208 218 131 104 154 138 189 177 116 159 99 111 215 111 119 167 102 227 160 121 74 129 69 124 86 79 58 111 60 128 107 65 88 52 29 47 129
141 156 109 103 131 102 124 52 69 151 63 31 46 74 65 54 111 68 65 75 87 104 65 52 102 177 98 121 55 59 201 158 156 157 106 52 151 150 135 216 42 99 126 123 78 136 93 137 108 107 153 167 213 169 159 133 110 128 88 202 144 194 52 141 127 128 164 149 131 199 154 111 95 107 95 117 124 137 219 106 146 213 151 169 120 149 134 129 102 67 45 115 48 69 89 64 60 102 58 37 35 82 159
158 118 36 103 129 138 155 34 149 116 89 35 54 39 62 75 86 80 60 107 75 55 73 125 109 88 102 54 65 38 138 159 164 44 115 134 165 162 130 45 168 166 168 150 102 70 104 66 134 171 94 186 158 168 125 172 72 188 146 229 221 153 186 225 106 148 148 72 168 95 96 156 177 201 228 141 196 220 195 108 209 213 171 136 100 175 78 46 72 45 59 44 60 57 58 84 82 79 39 31 196 135 139
141 34 56 110 98 143 49 63 116 75 36 42 37 63 66 69 100 96 67 87 64 65 88 84 107 150 143 56 62 174 162 160 108 51 29 141 148 140 158 74 134 155 165 144 92 95 89 65 89 167 58 90 213 118 143 198 195 129 213 222 124 160 175 225 216 157 114 64 215 205 73 66 179 174 180 117 182 222 136 147 191 229 129 218 136 138 68 62 44 95 68 60 62 68 69 129 83 55 38 64 125 128 135
19 208 66 124 149 195 53 108 172 84 34 52 57 64 79 68 96 63 107 60 66 89 57 140 159 188 54 68 62 154 161 169 56 27 131 137 159 202 39 74 130 179 187 83 85 102 85 74 110 176 105 95 94 159 172 160 205 156 85 180 143 155 114 217 55 73 80 200 169 72 97 133 127 181 201 168 159 209 165 208 198 171 196 146 201 58 127 85 104 113 92 60 65 97 65 64 54 45 39 93 145 135 51
52 39 110 137 145 46 66 123 124 69 44 35 49 56 92 84 68 59 70 65 79 89 198 127 111 55 43 35 125 161 165 150 51 124 164 149 127 48 51 153 186 148 133 115 153 110 174 86 108 80 202 93 130 116 143 190 225 82 138 140 217 86 170 123 75 150 180 77 189 138 151 178 167 68 201 154 185 202 199 155 174 233 210 154 182 160 145 62 66 59 47 58 76 60 113 113 62 36 174 136 130 134 29
166 92 106 139 171 49 145 87 196 67 42 69 58 69 60 55 44 64 70 63 82 181 93 113 62 48 37 135 149 137 175 125 143 164 143 135 186 45 115 182 200 116 114 84 124 157 155 151 106 209 146 230 230 199 149 123 156 147 170 186 195 219 150 149 202 138 66 76 172 144 73 165 98 89 128 136 190 205 182 166 113 121 201 149 102 149 57 111 85 55 58 80 72 105 59 67 44 52 103 125 151 86 39
52 130 140 170 31 51 111 114 64 34 46 62 105 59 46 57 97 77 66 96 100 82 160 93 51 24 34 94 153 169 166 150 158 151 156 197 32 93 206 191 153 103 73 102 139 125 69 145 165 185 187 206 198 194 155 98 141 141 146 182 165 198 197 181 171 85 88 130 144 200 76 63 217 205 209 146 117 212 200 229 128 191 151 76 118 78 177 44 126 52 60 78 95 92 93 213 25 197 147 133 157 49 49
111 126 147 37 49 72 109 158 39 26 66 58 51 56 52 96 68 52 67 118 96 166 94 59 31 37 131 137 156 171 172 176 153 118 120 52 43 97 184 188 86 134 99 118 68 201 141 140 67 195 218 162 221 177 125 154 139 145 83 170 164 187 131 97 63 94 79 140 160 51 150 64 167 200 201 148 199 127 162 215 147 150 184 105 179 90 78 94 56 64 117 108 100 93 82 131 53 114 130 167 118 35 146
124 146 200 28 29 159 135 139 31 45 56 75 66 76 114 68 73 55 139 67 104 95 44 44 48 36 97 154 171 175 176 154 148 130 147 29 108 192 167 156 97 82 76 127 77 222 93 95 128 126 120 134 236 120 179 198 119 110 83 168 207 150 126 62 92 125 34 189 205 144 150 43 129 196 175 194 217 97 146 231 229 126 126 184 109 86 144 49 103 133 149 73 89 57 92 52 167 137 139 162 72 117 136
135 130 29 29 53 98 119 80 32 52 53 89 76 76 65 79 59 80 92 128 167 92 54 36 33 124 150 162 178 172 155 150 136 207 17 181 164 197 216 87 126 107 115 85 88 161 117 139 155 106 130 156 100 212 222 130 161 121 215 223 104 143 150 149 188 146 135 144 150 198 84 78 80 202 164 198 220 97 169 194 154 130 140 78 191 128 87 57 63 99 138 181 124 96 63 74 137 145 148 149 131 144 119
138 21 32 41 120 180 63 62 43 46 77 104 116 105 69 51 64 75 67 216 74 32 31 31 48 117 150 170 171 167 143 148 111 49 44 78 169 208 157 148 147 204 174 199 131 143 197 168 176 104 106 162 195 195 150 190 110 198 154 108 134 83 98 93 96 184 109 171 59 227 57 158 201 201 136 166 139 135 118 79 120 74 140 151 76 175 109 133 118 114 106 185 105 48 37 118 151 131 162 148 150 109 118
189 24 28 79 115 145 65 34 42 58 88 83 74 62 63 62 80 95 150 83 37 35 31 38 80 164 154 159 167 146 154 124 41 39 65 128 195 164 103 129 146 88 168 174 197 70 230 174 110 149 174 73 151 181 213 199 184 198 117 77 225 100 104 168 87 118 182 141 67 212 176 207 221 210 165 153 216 140 133 218 218 175 138 43 172 54 120 57 95 110 119 89 64 46 88 117 153 167 154 154 143 123 117
25 29 32 108 138 51 70 53 43 62 60 82 79 75 43 63 95 119 105 51 54 46 34 24 141 148 162 161 113 160 124 138 43 172 188 202 148 168 102 90 191 84 179 110 180 182 215 111 121 95 126 213 155 104 238 143 228 95 175 166 135 83 155 135 141 55 60 149 102 171 154 204 162 213 147 165 200 190 222 233 89 176 60 145 93 125 116 130 207 185 115 96 67 53 100 145 153 151 155 156 141 136 27
27 25 56 70 70 43 41 63 49 77 93 63 78 77 55 58 75 134 93 82 58 47 49 56 114 161 161 159 166 131 192 48 76 195 194 184 158 164 88 76 169 121 179 64 84 159 147 155 196 159 164 196 156 204 113 172 166 149 144 110 80 93 88 137 202 115 116 124 196 145 79 119 114 114 215 206 159 201 170 161 145 76 172 118 87 64 97 123 154 171 165 44 29 75 110 151 153 146 155 140 159 110 33
31 45 170 195 57 49 29 45 54 79 58 76 59 57 75 111 109 105 120 57 47 57 53 156 140 153 172 153 123 167 27 53 74 191 169 184 135 130 117 113 108 144 154 120 205 182 126 186 188 145 206 141 160 195 107 80 84 58 195 104 114 78 170 57 186 57 127 73 180 72 73 185 188 170 143 156 202 117 187 149 123 190 96 180 78 95 144 129 140 175 52 57 34 125 130 146 153 145 144 146 184 43 33
190 39 109 55 46 38 46 63 76 69 78 51 64 60 74 168 84 48 42 245 64 41 39 96 147 179 177 151 100 77 46 60 125 220 212 111 63 184 78 208 144 65 102 127 113 92 140 141 145 179 158 196 177 184 206 153 89 208 207 205 108 55 145 86 164 126 168 97 109 158 135 164 201 126 124 135 201 179 186 141 158 161 67 111 149 98 89 184 166 80 36 48 49 86 153 140 148 159 144 108 60 38 25
51 72 66 74 44 44 41 63 68 72 87 97 67 126 138 153 75 129 70 42 49 46 67 118 147 170 166 80 59 38 68 161 165 176 120 107 104 109 109 105 114 165 130 150 93 185 209 145 164 198 181 98 218 208 115 82 88 103 187 185 164 159 55 162 135 206 218 74 148 212 186 120 187 136 148 127 97 216 141 155 96 172 87 98 141 125 118 191 73 51 38 44 165 147 169 141 165 155 113 41 42 34 67
52 85 64 58 36 56 82 85 65 97 82 68 99 105 146 85 72 194 204 53 48 33 85 107 150 138 78 58 46 187 171 180 225 102 106 72 121 111 98 145 131 117 228 216 217 184 181 204 188 192 159 196 140 212 150 102 124 150 188 210 194 149 119 146 85 174 177 89 136 208 201 134 233 199 145 135 209 114 130 169 83 120 69 92 95 141 145 133 164 45 34 36 51 148 155 172 162 133 55 34 41 58 161
102 80 73 46 41 52 48 89 100 57 77 70 181 188 98 109 169 72 42 49 36 35 67 86 108 80 83 49 192 79 195 161 155 124 90 64 95 108 123 95 205 131 225 195 197 187 141 86 198 175 217 140 219 154 135 200 187 187 157 74 187 100 49 116 171 125 100 55 165 159 123 137 174 232 150 98 82 106 196 172 103 95 95 168 146 128 129 73 45 32 39 107 90 130 178 159 145 113 43 46 52 48 45
168 104 75 33 49 57 85 125 57 80 73 124 144 123 130 208 57 79 55 66 59 53 65 62 68 36 33 96 53 149 121 156 135 76 77 158 181 155 169 196 157 210 124 177 170 222 124 215 117 175 157 236 134 120 189 184 147 104 75 48 55 137 109 93 150 194 176 179 150 87 177 54 225 154 185 63 135 155 110 189 147 90 66 143 143 168 147 108 68 37 32 135 103 157 158 135 96 25 46 49 58 85 116
156 54 45 48 59 123 136 75 70 116 66 121 121 48 52 170 65 46 37 51 33 24 28 63 53 29 98 54 184 211 220 130 117 117 109 155 204 55 121 213 133 198 130 85 179 134 189 220 147 126 172 127 119 221 155 79 97 63 189 140 170 96 176 158 191 212 194 161 150 201 150 164 165 228 179 170 146 160 184 165 115 59 77 118 171 178 164 53 43 31 27 48 109 135 118 76 27 48 44 70 131 46 168
65 41 48 37 41 109 74 65 117 75 121 137 85 39 228 60 66 54 47 51 46 23 58 21 43 116 107 170 157 161 157 145 66 78 208 94 67 90 196 221 87 176 176 137 129 182 195 194 225 145 93 118 223 135 70 109 45 141 98 115 133 47 86 199 143 156 162 191 208 197 105 215 194 107 84 128 115 129 170 117 166 85 171 109 175 79 94 107 28 33 39 62 62 87 59 43 29 52 54 104 75 44 126
87 41 157 42 80 57 83 140 97 116 217 161 92 67 182 63 55 46 33 62 32 23 28 17 109 175 150 181 198 120 74 66 73 58 72 69 158 185 153 199 151 192 229 187 187 145 174 188 230 134 151 174 64 73 95 166 110 194 124 140 221 115 140 168 146 129 165 176 120 123 97 210 171 166 103 119 178 93 129 159 165 178 128 168 161 104 66 82 37 44 59 77 47 43 36 37 36 35 45 89 63 131 92
63 41 102 67 99 76 78 99 62 89 96 181 62 100 41 46 44 39 43 27 25 23 174 39 164 109 141 171 167 149 128 73 62 162 134 196 191 177 70 178 150 185 126 198 220 151 202 194 177 138 218 200 65 95 102 177 157 157 181 74 168 184 102 165 151 200 218 106 166 89 141 111 181 167 94 125 150 174 64 137 137 119 150 137 168 149 93 42 33 32 27 33 25 41 28 29 27 53 160 147 64 166 65
43 57 52 62 47 72 77 84 74 85 62 67 94 72 48 36 59 45 35 34 44 79 69 168 89 139 109 97 131 75 87 57 85 184 205 110 110 148 125 199 109 184 184 174 168 110 242 187 200 164 169 80 235 62 120 66 72 54 114 108 167 169 188 86 215 222 196 119 189 176 111 126 187 97 172 102 80 177 165 83 92 166 191 92 129 75 146 45 32 43 31 34 53 24 33 27 154 164 73 58 151 136 43
46 64 76 79 78 128 86 72 189 84 34 66 139 66 98 54 64 49 49 22 60 76 90 82 157 125 192 153 96 92 130 157 60 80 190 56 150 217 145 154 211 226 218 169 169 215 171 178 172 172 108 166 172 172 99 192 108 128 174 155 135 153 191 198 217 204 197 108 186 127 133 119 153 151 130 64 176 143 79 216 107 148 139 133 135 87 134 31 38 32 47 25 39 27 29 218 145 115 178 204 179 35 83
28 88 72 47 115 138 86 83 78 66 85 162 185 116 190 99 44 36 28 89 160 43 72 168 190 177 121 135 84 52 154 144 123 65 141 97 159 190 145 167 208 128 199 153 196 204 192 198 140 121 130 216 104 73 125 95 180 49 137 94 172 170 125 174 133 201 160 73 202 184 171 169 134 148 161 227 135 67 85 63 181 149 138 171 78 136 47 28 44 51 26 18 21 21 48 133 56 48 177 52 117 52 119
52 69 39 140 73 90 107 166 75 44 116 167 126 129 186 176 78 70 198 196 60 76 166 182 116 174 129 97 105 87 146 77 53 162 167 134 123 191 167 209 200 235 227 221 180 129 222 209 123 118 186 130 82 72 140 80 202 83 140 62 117 99 103 195 199 175 118 127 148 171 187 60 175 166 221 73 135 98 100 158 123 117 144 113 77 136 42 39 31 37 22 19 33 23 34 88 87 68 83 125 46 78 74
49 75 48 100 99 104 83 60 53 141 174 120 179 68 177 70 174 151 192 41 117 157 168 149 198 75 46 96 78 52 177 136 154 170 139 225 174 186 149 218 179 157 174 159 197 145 137 139 164 124 84 111 102 107 82 70 114 129 212 105 167 117 87 207 231 206 209 175 165 195 169 211 135 206 82 109 186 172 120 87 162 151 82 119 72 144 57 25 25 22 181 25 12 88 179 231 202 106 59 45 48 102 78
140 86 60 63 127 166 95 47 143 170 116 161 70 198 174 204 209 124 39 65 228 110 176 189 134 95 160 66 148 136 93 79 70 124 207 196 207 153 119 199 206 201 124 187 237 164 116 194 139 86 168 156 144 126 53 161 164 72 161 184 199 165 77 167 185 192 177 167 227 146 168 87 155 160 218 85 131 115 106 128 166 128 97 134 75 108 43 49 37 57 32 60 151 166 208 248 209 28 116 44 115 62 62
133 79 106 57 75 62 66 87 88 162 79 188 57 165 161 97 51 45 75 171 178 148 164 103 60 127 94 148 128 76 62 206 64 127 177 229 164 115 177 209 223 185 121 156 225 190 124 178 184 198 127 84 188 145 58 135 95 100 48 190 195 188 118 179 129 197 184 188 204 218 213 118 139 202 129 62 177 164 98 188 182 117 145 48 78 129 75 98 49 55 102 153 135 139 204 208 46 44 44 77 106 98 93
83 130 118 75 79 67 56 54 97 206 82 185 79 66 64 58 55 74 184 139 113 137 110 93 73 53 138 123 90 128 110 177 86 150 204 156 133 159 184 80 109 121 190 208 197 190 150 109 87 177 155 179 105 83 147 168 139 60 166 124 95 145 205 164 159 85 116 197 197 153 57 54 116 177 155 141 83 135 106 156 159 148 143 55 41 172 125 77 187 166 134 158 190 200 113 115 69 43 52 80 63 83 94
129 104 105 141 76 93 72 87 114 171 94 171 65 49 78 82 109 223 141 97 170 150 86 109 87 88 90 196 170 162 74 166 172 131 105 194 108 182 182 189 177 161 189 139 194 182 209 125 64 182 175 70 69 172 127 169 168 165 228 119 109 208 136 175 105 144 171 139 155 105 164 102 95 117 117 170 175 98 70 145 108 95 200 34 85 177 181 189 149 99 43 137 225 77 90 66 42 36 180 89 109 58 93
78 89 181 95 105 72 78 78 187 148 120 167 75 80 175 120 218 166 118 182 127 82 68 72 127 210 77 66 204 131 79 172 221 154 130 195 216 184 172 147 119 162 147 131 162 171 172 105 162 124 174 56 113 194 159 190 124 137 209 213 178 223 199 73 184 143 191 170 85 174 107 180 100 172 128 164 65 87 137 158 83 146 155 54 78 129 114 73 107 129 189 167 108 88 57 75 23 49 131 70 92 76 116
128 133 150 75 147 57 169 149 177 148 103 154 143 165 151 151 161 109 143 151 76 83 136 105 51 137 180 113 130 58 232 154 181 153 117 217 195 156 222 210 196 175 167 99 139 147 124 198 150 82 31 119 167 162 165 146 102 155 187 146 171 109 210 187 150 195 208 86 208 200 135 96 120 68 97 109 82 115 159 164 136 162 181 59 80 88 98 73 115 136 159 108 155 86 34 77 47 63 51 108 164 113 89
124 117 94 160 64 74 107 196 133 150 88 93 145 128 107 213 107 215 146 68 60 139 62 165 197 83 73 104 148 98 222 198 174 180 197 201 190 82 158 211 206 110 141 106 111 208 125 134 125 146 102 134 199 186 169 187 215 177 80 168 205 211 80 138 191 161 174 167 177 181 144 146 92 127 157 158 167 95 113 97 77 166 84 108 102 72 77 86 87 139 169 169 62 46 89 126 151 51 63 140 104 65 158
127 154 107 186 83 94 114 180 150 200 111 155 120 124 225 209 241 167 108 69 140 97 136 90 146 130 86 157 196 96 90 164 144 202 208 204 226 170 216 176 192 202 186 204 209 93 90 117 120 100 70 119 158 141 159 153 196 171 78 187 241 197 79 149 189 186 165 162 189 125 159 148 117 160 153 138 130 121 175 86 99 95 157 141 140 124 161 180 116 184 119 108 44 56 48 79 151 44 67 131 103 104 135
207 110 68 35 62 123 106 216 171 168 165 100 190 170 106 160 136 179 68 133 114 105 51 141 144 85 191 159 137 128 80 131 159 185 161 170 213 212 100 155 245 210 182 190 164 114 220 106 103 153 85 174 165 167 65 159 215 99 105 156 188 166 135 217 191 139 157 120 166 109 77 197 130 149 96 160 178 92 140 49 119 162 135 118 198 175 109 137 99 86 168 87 70 42 86 106 51 57 131 135 102 105 118
160 99 165 55 51 73 155 162 119 219 177 180 221 172 207 150 115 58 117 130 68 84 147 103 65 137 160 182 155 162 176 154 154 155 123 135 230 229 87 223 192 202 186 213 83 174 169 148 184 141 102 181 188 189 78 124 205 165 117 134 145 165 196 165 143 137 175 78 54 140 199 167 87 188 136 83 123 184 100 111 134 124 129 177 162 98 168 97 126 180 133 85 79 33 116 99 64 59 128 135 92 115 181
108 105 153 110 105 47 51 120 205 134 105 227 131 212 156 107 70 108 103 100 127 185 140 162 166 109 150 139 98 172 156 166 99 117 235 200 213 175 232 164 218 127 171 170 100 111 89 156 104 82 177 144 147 127 117 171 216 178 125 134 190 206 141 181 208 198 83 47 135 166 194 126 113 160 178 120 68 108 158 130 104 108 125 76 170 188 62 153 88 154 60 208 35 60 107 54 63 131 145 114 144 136 126
140 146 96 102 125 63 138 135 178 108 204 196 184 111 70 70 147 131 125 154 174 79 56 223 126 89 113 107 148 221 146 156 139 195 176 179 156 189 164 191 150 57 94 207 170 109 72 174 121 104 159 99 218 212 138 191 198 198 204 223 205 121 180 208 178 128 147 178 156 138 146 68 125 177 107 83 119 169 160 144 99 83 97 138 80 117 181 124 67 107 109 57 73 137 139 114 134 89 127 168 83 171 83
121 147 74 124 119 66 135 102 121 206 139 186 80 114 96 103 167 116 181 103 172 136 170 205 178 109 154 107 213 195 145 110 202 143 185 108 186 70 118 186 106 83 117 197 107 116 77 85 69 93 176 70 158 216 185 197 134 160 153 147 100 136 111 190 70 134 211 150 74 145 94 94 89 89 110 72 67 135 155 194 95 169 189 178 120 144 117 87 139 94 118 37 54 144 85 98 157 146 133 106 64 187 131
90 145 45 86 170 85 93 100 134 219 151 98 114 77 75 120 78 117 97 69 195 92 155 222 111 79 206 181 169 194 174 165 205 233 190 119 160 162 218 209 159 131 147 189 164 56 172 116 155 135 189 60 206 201 221 141 144 195 161 199 195 145 195 63 170 178 144 155 185 141 136 136 154 103 52 75 160 130 166 170 105 155 102 181 134 102 58 92 96 137 60 114 109 90 86 153 97 147 145 53 188 168 135
148 197 66 90 179 137 103 49 56 121 54 60 34 92 116 144 108 93 155 184 176 188 139 104 103 62 184 85 94 180 166 222 181 225 182 108 233 145 240 202 153 100 87 162 67 78 195 125 185 94 158 171 172 206 175 198 124 192 196 109 168 177 171 178 153 106 178 108 72 83 181 136 169 85 53 105 134 154 187 135 86 186 159 87 125 69 74 115 130 75 97 116 107 84 121 153 116 124 125 147 140 130 53
78 125 59 59 134 178 133 113 90 125 98 58 75 116 135 107 128 79 58 136 83 117 166 120 141 182 207 128 95 155 199 186 104 195 171 160 216 131 162 134 166 199 210 53 77 105 131 188 129 47 107 171 102 178 181 164 119 149 107 166 171 205 167 150 123 136 67 102 172 110 75 148 135 86 104 100 184 150 131 166 69 106 138 82 85 138 124 149 55 37 191 156 93 89 156 110 145 148 76 141 202 131 79
42 70 93 117 102 123 168 151 170 110 44 56 111 155 83 169 185 76 59 102 107 100 148 141 192 146 211 175 131 168 208 222 143 179 94 215 207 145 110 229 78 199 56 51 72 56 98 179 137 154 70 179 70 149 123 210 204 88 124 161 92 201 115 136 143 169 100 204 72 148 194 134 130 41 52 123 94 107 202 145 98 115 104 74 199 51 155 138 62 148 165 113 111 151 80 143 106 116 103 137 128 43 34
108 167 155 178 169 138 103 59 44 42 56 141 95 115 130 107 105 181 80 196 78 104 146 151 159 167 154 151 107 166 216 170 219 133 195 233 233 131 194 153 186 83 111 54 138 127 107 95 188 118 125 236 123 67 123 187 213 80 86 174 215 116 207 190 136 137 200 149 140 153 82 128 68 43 65 74 147 83 111 86 107 72 64 184 48 158 78 58 84 90 114 77 90 171 109 114 149 52 161 124 89 52 121
159 177 189 189 189 179 125 48 39 102 148 93 113 88 161 106 156 85 86 120 73 211 225 185 156 153 129 207 157 147 189 178 143 119 228 136 166 188 134 213 207 172 34 118 185 199 103 155 147 170 130 204 185 158 217 171 191 165 196 168 116 218 194 199 126 191 105 184 120 96 126 126 73 47 86 114 125 66 88 145 55 82 84 43 118 58 86 48 136 95 96 96 213 162 119 145 123 171 171 103 59 72 182
184 184 196 199 190 180 162 100 64 45 56 107 72 155 116 136 117 92 115 181 102 145 128 143 108 146 135 225 199 202 141 196 115 218 194 182 181 169 167 141 205 79 89 162 170 143 145 156 184 156 156 176 215 210 174 67 141 153 89 204 167 186 165 144 114 54 123 60 148 186 97 54 72 39 60 67 129 137 41 54 103 41 45 52 83 67 92 126 133 149 66 92 158 123 111 155 53 174 67 34 104 168 180
