P2
3 2
255
0 10
10 255
100 150
