P2
3 2
255
150 200
100 250
50 2


