P2
2 2
255
10 0
10 10
