P2
2 2
255
1 10
10 255 
